<svg width="110" height="24" viewBox="0 0 110 24" fill="none" xmlns="http://www.w3.org/2000/svg">
<path d="M38.8164 10.4213H32.5289V6.96611H45.7267L38.5198 17.4431H45.3411V20.8983H31.6392L38.8164 10.4213Z" fill="#023669"/>
<path d="M54.2095 21.2048C53.1418 21.2048 52.1335 21.0191 51.1844 20.6475C50.2354 20.276 49.4049 19.7652 48.6931 19.115C47.9814 18.4462 47.4179 17.6753 47.0026 16.8022C46.6072 15.9106 46.4095 14.9539 46.4095 13.9322C46.4095 12.9105 46.6072 11.9631 47.0026 11.09C47.4179 10.1984 47.9814 9.42746 48.6931 8.77729C49.4049 8.12712 50.2354 7.61627 51.1844 7.24475C52.1335 6.85465 53.1418 6.6596 54.2095 6.6596C55.2772 6.6596 56.2856 6.85465 57.2346 7.24475C58.1837 7.61627 59.0141 8.12712 59.7259 8.77729C60.4377 9.42746 60.9913 10.1984 61.3867 11.09C61.8019 11.9631 62.0095 12.9105 62.0095 13.9322C62.0095 14.9539 61.8019 15.9106 61.3867 16.8022C60.9913 17.6753 60.4377 18.4462 59.7259 19.115C59.0141 19.7652 58.1837 20.276 57.2346 20.6475C56.2856 21.0191 55.2772 21.2048 54.2095 21.2048ZM54.2095 17.6382C54.7434 17.6382 55.2278 17.5453 55.6627 17.3595C56.1175 17.1738 56.5031 16.923 56.8194 16.6072C57.1555 16.2728 57.4126 15.8827 57.5905 15.4369C57.7882 14.9725 57.8871 14.4709 57.8871 13.9322C57.8871 13.3935 57.7882 12.9012 57.5905 12.4554C57.4126 11.991 57.1555 11.6009 56.8194 11.2851C56.5031 10.9507 56.1175 10.6906 55.6627 10.5049C55.2278 10.3191 54.7434 10.2262 54.2095 10.2262C53.6757 10.2262 53.1814 10.3191 52.7266 10.5049C52.2719 10.6906 51.8764 10.9507 51.5403 11.2851C51.2239 11.6009 50.9669 11.991 50.7692 12.4554C50.5912 12.9012 50.5023 13.3935 50.5023 13.9322C50.5023 14.4709 50.5912 14.9725 50.7692 15.4369C50.9669 15.8827 51.2239 16.2728 51.5403 16.6072C51.8764 16.923 52.2719 17.1738 52.7266 17.3595C53.1814 17.5453 53.6757 17.6382 54.2095 17.6382Z" fill="#023669"/>
<path d="M71.1678 21.2048C70.1001 21.2048 69.0917 21.0191 68.1427 20.6475C67.1936 20.276 66.3632 19.7652 65.6514 19.115C64.9396 18.4462 64.3761 17.6753 63.9609 16.8022C63.5655 15.9106 63.3678 14.9539 63.3678 13.9322C63.3678 12.9105 63.5655 11.9631 63.9609 11.09C64.3761 10.1984 64.9396 9.42746 65.6514 8.77729C66.3632 8.12712 67.1936 7.61627 68.1427 7.24475C69.0917 6.85465 70.1001 6.6596 71.1678 6.6596C72.2355 6.6596 73.2439 6.85465 74.1929 7.24475C75.142 7.61627 75.9724 8.12712 76.6842 8.77729C77.396 9.42746 77.9496 10.1984 78.345 11.09C78.7602 11.9631 78.9678 12.9105 78.9678 13.9322C78.9678 14.9539 78.7602 15.9106 78.345 16.8022C77.9496 17.6753 77.396 18.4462 76.6842 19.115C75.9724 19.7652 75.142 20.276 74.1929 20.6475C73.2439 21.0191 72.2355 21.2048 71.1678 21.2048ZM71.1678 17.6382C71.7016 17.6382 72.1861 17.5453 72.621 17.3595C73.0758 17.1738 73.4613 16.923 73.7777 16.6072C74.1138 16.2728 74.3709 15.8827 74.5488 15.4369C74.7465 14.9725 74.8454 14.4709 74.8454 13.9322C74.8454 13.3935 74.7465 12.9012 74.5488 12.4554C74.3709 11.991 74.1138 11.6009 73.7777 11.2851C73.4613 10.9507 73.0758 10.6906 72.621 10.5049C72.1861 10.3191 71.7016 10.2262 71.1678 10.2262C70.634 10.2262 70.1397 10.3191 69.6849 10.5049C69.2302 10.6906 68.8347 10.9507 68.4986 11.2851C68.1822 11.6009 67.9252 11.991 67.7275 12.4554C67.5495 12.9012 67.4606 13.3935 67.4606 13.9322C67.4606 14.4709 67.5495 14.9725 67.7275 15.4369C67.9252 15.8827 68.1822 16.2728 68.4986 16.6072C68.8347 16.923 69.2302 17.1738 69.6849 17.3595C70.1397 17.5453 70.634 17.6382 71.1678 17.6382Z" fill="#023669"/>
<path d="M86.317 21.2048C85.2888 21.2048 84.2903 21.1027 83.3215 20.8983C82.3725 20.7125 81.5223 20.4339 80.7709 20.0624V16.3564C81.6014 16.8394 82.4515 17.2202 83.3215 17.4989C84.2112 17.7775 85.1306 17.9168 86.0797 17.9168C87.7405 17.9168 88.5709 17.5453 88.5709 16.8022C88.5709 16.4864 88.4227 16.245 88.1261 16.0778C87.8295 15.892 87.355 15.7434 86.7025 15.6319L85.19 15.3812C82.1253 14.8982 80.593 13.4214 80.593 10.9507C80.593 10.3191 80.7314 9.74326 81.0082 9.22312C81.3048 8.68441 81.7101 8.22929 82.2242 7.85777C82.758 7.48624 83.3907 7.19831 84.1223 6.99397C84.8736 6.77105 85.6941 6.6596 86.5839 6.6596C87.6516 6.6596 88.5611 6.75248 89.3124 6.93824C90.0835 7.10543 90.7558 7.31905 91.3291 7.57912V11.1458C90.7558 10.7928 90.0538 10.4863 89.2234 10.2262C88.393 9.96617 87.5725 9.83614 86.7618 9.83614C85.2394 9.83614 84.4782 10.1798 84.4782 10.8671C84.4782 11.1829 84.6166 11.4244 84.8934 11.5916C85.1702 11.7402 85.6249 11.8702 86.2576 11.9817L87.6219 12.2046C89.3816 12.4647 90.647 12.957 91.4181 13.6814C92.1892 14.3873 92.5748 15.3904 92.5748 16.6908C92.5748 18.0469 92.0409 19.1429 90.9732 19.9788C89.9056 20.7961 88.3535 21.2048 86.317 21.2048Z" fill="#023669"/>
<path d="M98.9375 14.4895V20.8983H94.8744V0H98.9375V12.0932L103.742 6.96611H108.636L102.763 13.2356L110 20.8983H104.988L98.9375 14.4895Z" fill="#023669"/>
<path d="M23.9112 12.6541C26.416 10.1899 26.7254 6.26295 24.2206 3.80715C21.7159 1.34291 17.6767 1.0822 14.685 3.6007C14.2898 3.93025 13.3241 4.84037 12.9748 5.20414C9.13885 9.61155 9.92608 15.7417 12.9748 23.0361L23.9112 12.6541Z" fill="#E95454"/>
<path d="M2.04042 12.6541C-0.464347 10.1899 -0.773742 6.26295 1.73103 3.80715C4.2358 1.34291 8.27496 1.0822 11.2667 3.6007C11.6618 3.93025 12.6276 4.84037 12.9768 5.20414C16.8128 9.61155 16.0256 15.7417 12.9768 23.0361L2.04042 12.6541Z" fill="#FF6868"/>
</svg>
