<svg width="25" height="25" viewBox="0 0 25 25" fill="none" xmlns="http://www.w3.org/2000/svg">
<path fill-rule="evenodd" clip-rule="evenodd" d="M0.0776367 12.5673C0.0776367 5.95651 5.43747 0.59668 12.0482 0.59668C18.659 0.59668 24.0188 5.95651 24.0188 12.5673C24.0188 19.178 18.659 24.5379 12.0482 24.5379C5.43747 24.5379 0.0776367 19.178 0.0776367 12.5673ZM14.4945 8.57745H16.2192V5.71548L16.201 5.71303C15.8907 5.6711 15.2518 5.5848 14.0645 5.5848C11.5358 5.5848 10.0534 6.92052 10.0534 9.96305V11.5701H7.06074V14.5627H10.0534V22.3426C10.6978 22.4733 11.3652 22.5431 12.0485 22.5431C12.3857 22.5431 12.7178 22.5252 13.046 22.4933V14.5627H15.7654L16.1923 11.5701H13.046V10.2912C13.046 9.14406 13.4211 8.57745 14.4945 8.57745Z" fill="#2D4A86"/>
</svg>
