<svg width="32" height="33" viewBox="0 0 32 33" fill="none" xmlns="http://www.w3.org/2000/svg">
<g clip-path="url(#clip0)">
<path d="M32 16.5632C32 7.67265 24.8366 0.465439 16 0.465439C7.16344 0.465439 0 7.67265 0 16.5632C0 24.598 5.85094 31.2578 13.5 32.4654V21.2165H9.4375V16.5632H13.5V13.0167C13.5 8.98217 15.8888 6.75363 19.5434 6.75363C21.2934 6.75363 23.125 7.06804 23.125 7.06804V11.0296H21.1075C19.12 11.0296 18.5 12.2706 18.5 13.5449V16.5632H22.9375L22.2281 21.2165H18.5V32.4654C26.1491 31.2578 32 24.598 32 16.5632Z" fill="#4E585B"/>
</g>
<defs>
<clipPath id="clip0">
<rect width="32" height="32" fill="white" transform="translate(0 0.465439)"/>
</clipPath>
</defs>
</svg>
