<svg viewBox="0 0 19 19" fill="none" xmlns="http://www.w3.org/2000/svg">
    <title>Google Logo</title>
    <desc>Google multi-colored G Brand Logo</desc>
    <g clip-path="url(#clip0)">
        <path d="M.965 13.671l3.17-2.436a5.649 5.649 0 0 1-.28-1.761c0-.616.099-1.208.28-1.761L.965 5.276A9.523 9.523 0 0 0 0 9.474c0 1.51.347 2.934.965 4.197z" fill="#FBBC05"/>
        <path d="M4.135 7.713a5.561 5.561 0 0 1 5.29-3.837c1.328 0 2.527.473 3.47 1.248l2.742-2.756C13.966.904 11.823 0 9.425 0a9.393 9.393 0 0 0-8.46 5.276l3.17 2.437z" fill="#EA4335"/>
        <path d="M.964 13.669a9.393 9.393 0 0 0 8.46 5.278c4.713 0 8.997-3.445 8.997-9.473 0-.56-.086-1.163-.214-1.723H9.425v3.66h5.055c-.471 2.326-2.442 3.66-5.055 3.66a5.561 5.561 0 0 1-5.293-3.844L.964 13.669z" fill="#34A853"/>
        <path d="M9.425 7.751h8.782c.128.56.214 1.163.214 1.723 0 3.088-1.124 5.498-2.853 7.114l-3.01-2.342c.984-.624 1.669-1.587 1.922-2.835H9.425v-3.66z" fill="#4285F4"/>
    </g>
    <defs>
        <clipPath id="clip0">
            <path fill="#fff" d="M0 0h18.421v18.947H0z"/>
        </clipPath>
    </defs>
</svg>