<svg width="32" height="33" viewBox="0 0 32 33" fill="none" xmlns="http://www.w3.org/2000/svg">
<circle cx="16" cy="16.4654" r="16" fill="#4E585B"/>
<g clip-path="url(#clip0)">
<path d="M26.0854 12.3021C26.0381 11.2282 25.8644 10.49 25.6157 9.85025C25.359 9.1712 24.9642 8.56325 24.4469 8.05785C23.9415 7.5446 23.3296 7.14577 22.6584 6.89315C22.015 6.64439 21.2806 6.47073 20.2067 6.42339C19.1248 6.37203 18.7814 6.36015 16.0374 6.36015C13.2935 6.36015 12.95 6.37203 11.8721 6.41938C10.7983 6.46672 10.06 6.64053 9.42042 6.88914C8.74122 7.14577 8.13327 7.54059 7.62788 8.05785C7.11462 8.56325 6.71595 9.17521 6.46317 9.84639C6.21441 10.49 6.04075 11.2242 5.99341 12.2981C5.94205 13.38 5.93018 13.7234 5.93018 16.4674C5.93018 19.2113 5.94205 19.5548 5.9894 20.6327C6.03674 21.7065 6.21056 22.4448 6.45932 23.0845C6.71595 23.7636 7.11462 24.3715 7.62788 24.8769C8.13327 25.3902 8.74523 25.789 9.41641 26.0416C10.06 26.2904 10.7943 26.464 11.8683 26.5114C12.946 26.5589 13.2896 26.5706 16.0336 26.5706C18.7775 26.5706 19.121 26.5589 20.1988 26.5114C21.2727 26.464 22.011 26.2904 22.6505 26.0416C24.0088 25.5165 25.0827 24.4426 25.6078 23.0845C25.8564 22.441 26.0302 21.7065 26.0776 20.6327C26.1249 19.5548 26.1368 19.2113 26.1368 16.4674C26.1368 13.7234 26.1328 13.38 26.0854 12.3021ZM24.2654 20.5537C24.2219 21.5407 24.0561 22.0737 23.918 22.4291C23.5784 23.3095 22.8796 24.0083 21.9991 24.3479C21.6438 24.4861 21.1069 24.6519 20.1237 24.6953C19.0577 24.7428 18.738 24.7545 16.0414 24.7545C13.3448 24.7545 13.0211 24.7428 11.959 24.6953C10.9719 24.6519 10.4389 24.4861 10.0836 24.3479C9.64544 24.186 9.24661 23.9294 8.9229 23.5938C8.5873 23.2661 8.33067 22.8712 8.16874 22.4331C8.03055 22.0778 7.86476 21.5407 7.82143 20.5577C7.77393 19.4917 7.7622 19.1719 7.7622 16.4753C7.7622 13.7786 7.77393 13.4549 7.82143 12.3929C7.86476 11.4059 8.03055 10.8729 8.16874 10.5176C8.33067 10.0793 8.5873 9.6806 8.9269 9.35673C9.25448 9.02114 9.64929 8.76451 10.0876 8.60273C10.4429 8.46454 10.9799 8.29875 11.963 8.25526C13.029 8.20791 13.3488 8.19604 16.0453 8.19604C18.7459 8.19604 19.0656 8.20791 20.1277 8.25526C21.1148 8.29875 21.6478 8.46454 22.0031 8.60273C22.4413 8.76451 22.8401 9.02114 23.1638 9.35673C23.4994 9.68446 23.756 10.0793 23.918 10.5176C24.0561 10.8729 24.2219 11.4098 24.2654 12.3929C24.3128 13.4589 24.3246 13.7786 24.3246 16.4753C24.3246 19.1719 24.3128 19.4877 24.2654 20.5537Z" fill="white"/>
<path d="M16.037 11.2756C13.1708 11.2756 10.8452 13.601 10.8452 16.4674C10.8452 19.3338 13.1708 21.6592 16.037 21.6592C18.9034 21.6592 21.2288 19.3338 21.2288 16.4674C21.2288 13.601 18.9034 11.2756 16.037 11.2756ZM16.037 19.8352C14.1775 19.8352 12.6692 18.327 12.6692 16.4674C12.6692 14.6078 14.1775 13.0996 16.037 13.0996C17.8967 13.0996 19.4048 14.6078 19.4048 16.4674C19.4048 18.327 17.8967 19.8352 16.037 19.8352Z" fill="white"/>
<path d="M22.6464 11.0703C22.6464 11.7396 22.1037 12.2824 21.4342 12.2824C20.7649 12.2824 20.2222 11.7396 20.2222 11.0703C20.2222 10.4008 20.7649 9.85826 21.4342 9.85826C22.1037 9.85826 22.6464 10.4008 22.6464 11.0703Z" fill="white"/>
</g>
<defs>
<clipPath id="clip0">
<rect width="20.2105" height="20.2105" fill="white" transform="translate(5.89453 6.36015)"/>
</clipPath>
</defs>
</svg>
