<svg width="40" height="40" viewBox="0 0 40 40" fill="none" xmlns="http://www.w3.org/2000/svg">
<circle cx="20" cy="20" r="20" fill="#3B4869"/>
<g clip-path="url(#clip0)">
<path d="M32.6067 14.7958C32.5475 13.4535 32.3304 12.5307 32.0194 11.731C31.6987 10.8822 31.2051 10.1223 30.5586 9.49053C29.9268 8.84896 29.1619 8.35043 28.3229 8.03466C27.5186 7.7237 26.6006 7.50663 25.2583 7.44745C23.9059 7.38325 23.4766 7.36841 20.0466 7.36841C16.6167 7.36841 16.1874 7.38325 14.84 7.44244C13.4977 7.50162 12.5749 7.71888 11.7754 8.02964C10.9264 8.35043 10.1665 8.84395 9.53472 9.49053C8.89315 10.1223 8.39481 10.8872 8.07885 11.7262C7.76789 12.5307 7.55082 13.4485 7.49164 14.7908C7.42744 16.1432 7.4126 16.5725 7.4126 20.0025C7.4126 23.4324 7.42744 23.8617 7.48663 25.2091C7.54581 26.5514 7.76307 27.4742 8.07403 28.2739C8.39481 29.1227 8.89315 29.8826 9.53472 30.5144C10.1665 31.1559 10.9314 31.6545 11.7704 31.9703C12.5749 32.2812 13.4927 32.4983 14.8352 32.5575C16.1824 32.6168 16.6119 32.6315 20.0418 32.6315C23.4718 32.6315 23.9011 32.6168 25.2484 32.5575C26.5908 32.4983 27.5136 32.2812 28.3131 31.9703C30.0109 31.3138 31.3532 29.9715 32.0096 28.2739C32.3204 27.4694 32.5376 26.5514 32.5968 25.2091C32.656 23.8617 32.6708 23.4324 32.6708 20.0025C32.6708 16.5725 32.6658 16.1432 32.6067 14.7958ZM30.3317 25.1104C30.2773 26.3442 30.0701 27.0104 29.8973 27.4546C29.4728 28.5552 28.5993 29.4286 27.4988 29.8531C27.0546 30.0259 26.3835 30.2331 25.1545 30.2873C23.822 30.3467 23.4224 30.3613 20.0517 30.3613C16.6809 30.3613 16.2762 30.3467 14.9486 30.2873C13.7148 30.2331 13.0485 30.0259 12.6044 29.8531C12.0567 29.6507 11.5581 29.3299 11.1535 28.9104C10.734 28.5008 10.4132 28.0073 10.2108 27.4596C10.0381 27.0154 9.83083 26.3442 9.77666 25.1154C9.71728 23.7829 9.70263 23.383 9.70263 20.0123C9.70263 16.6415 9.71728 16.2369 9.77666 14.9094C9.83083 13.6756 10.0381 13.0094 10.2108 12.5652C10.4132 12.0173 10.734 11.519 11.1585 11.1141C11.568 10.6946 12.0615 10.3739 12.6094 10.1716C13.0535 9.99889 13.7248 9.79166 14.9536 9.73729C16.2861 9.67811 16.6859 9.66326 20.0565 9.66326C23.4322 9.66326 23.8319 9.67811 25.1596 9.73729C26.3933 9.79166 27.0596 9.99889 27.5038 10.1716C28.0515 10.3739 28.55 10.6946 28.9546 11.1141C29.3741 11.5238 29.6949 12.0173 29.8973 12.5652C30.0701 13.0094 30.2773 13.6804 30.3317 14.9094C30.3908 16.2419 30.4057 16.6415 30.4057 20.0123C30.4057 23.383 30.3908 23.7779 30.3317 25.1104Z" fill="white"/>
<path d="M20.0464 13.5127C16.4636 13.5127 13.5566 16.4194 13.5566 20.0025C13.5566 23.5855 16.4636 26.4922 20.0464 26.4922C23.6294 26.4922 26.5361 23.5855 26.5361 20.0025C26.5361 16.4194 23.6294 13.5127 20.0464 13.5127ZM20.0464 24.2122C17.722 24.2122 15.8367 22.327 15.8367 20.0025C15.8367 17.6779 17.722 15.7927 20.0464 15.7927C22.3709 15.7927 24.2561 17.6779 24.2561 20.0025C24.2561 22.327 22.3709 24.2122 20.0464 24.2122Z" fill="white"/>
<path d="M28.3081 13.2562C28.3081 14.0928 27.6298 14.7712 26.7929 14.7712C25.9562 14.7712 25.2778 14.0928 25.2778 13.2562C25.2778 12.4193 25.9562 11.7411 26.7929 11.7411C27.6298 11.7411 28.3081 12.4193 28.3081 13.2562Z" fill="white"/>
</g>
<defs>
<clipPath id="clip0">
<rect width="25.2632" height="25.2632" fill="white" transform="translate(7.36816 7.36841)"/>
</clipPath>
</defs>
</svg>
